<svg xmlns="http://www.w3.org/2000/svg" xmlns:xlink="http://www.w3.org/1999/xlink" width="100%" height="100%" viewBox="0 0 355 83"><clipPath id="a"><path transform="scale(.24)" d="M0 0h1479.167v339.038H0z" fill-rule="evenodd"/></clipPath><g clip-path="url(#a)"><path d="M92.782 1.08h113.99a5.28 5.28 0 0 1 2.94.892 5.28 5.28 0 0 1 1.949 2.375 5.28 5.28 0 0 1 .403 2.026v65.023a5.28 5.28 0 0 1-.892 2.94 5.28 5.28 0 0 1-2.375 1.95 5.282 5.282 0 0 1-2.026.403H92.782a5.28 5.28 0 0 1-2.94-.892 5.28 5.28 0 0 1-1.95-2.376 5.28 5.28 0 0 1-.402-2.025V6.373a5.28 5.28 0 0 1 .892-2.94 5.28 5.28 0 0 1 2.375-1.95 5.28 5.28 0 0 1 2.025-.403z" fill="#f5f5f5"/><path fill="none" stroke="#000" d="M92.782 1.08h113.99a5.28 5.28 0 0 1 2.94.892 5.28 5.28 0 0 1 1.949 2.375 5.28 5.28 0 0 1 .403 2.026v65.023a5.28 5.28 0 0 1-.892 2.94 5.28 5.28 0 0 1-2.375 1.95 5.282 5.282 0 0 1-2.026.403H92.782a5.28 5.28 0 0 1-2.94-.892 5.28 5.28 0 0 1-1.95-2.376 5.28 5.28 0 0 1-.402-2.025V6.373a5.28 5.28 0 0 1 .892-2.94 5.28 5.28 0 0 1 2.375-1.95 5.28 5.28 0 0 1 2.025-.403z" stroke-width=".72008"/><path stroke-miterlimit="10" fill="none" stroke="#000" d="M87.67 28.443h24.792" stroke-width=".72008"/><path d="m115.343 28.443-2.88 1.44v-2.88l2.88 1.44z"/><path stroke-miterlimit="10" fill="none" stroke="#000" d="m115.343 28.443-2.88 1.44v-2.88l2.88 1.44z" stroke-width=".72008"/><path d="M97.931 24.483h7.92v8.64h-7.92z" fill="#f5f5f5"/><symbol id="b"><path d="M.444.491.392.4a.161.161 0 0 1-.115.04.138.138 0 0 1-.11-.046.187.187 0 0 1-.04-.127c0-.11.052-.165.157-.165.045 0 .085.015.12.045L.447.051A.309.309 0 0 0 .355.009.437.437 0 0 0 .261 0 .259.259 0 0 0 .07.07.267.267 0 0 0 0 .267a.27.27 0 0 0 .077.2c.05.05.12.075.209.075.06 0 .113-.017.158-.05z"/></symbol><symbol id="c"><path d="M.338 0v.322C.338.354.328.38.308.4A.109.109 0 0 1 .23.43.128.128 0 0 1 .168.412.11.11 0 0 1 .124.375V0H0v.718l.124.03V.49a.187.187 0 0 0 .13.043.205.205 0 0 0 .153-.055C.443.442.46.39.46.322V0H.338z"/></symbol><use xlink:href="#b" transform="matrix(7.20081 0 0 -7.20081 98.148 31.034)"/><use xlink:href="#c" transform="matrix(7.20081 0 0 -7.20081 102.081 30.963)"/><path stroke-miterlimit="10" fill="none" stroke="#000" d="m74.168 28.436 20.523.007V6.841h109.668l-.029 13.415" stroke-width=".72008"/><path d="m204.323 24.036-2.506-5.04 2.513 1.26 2.528-1.253-2.535 5.033z"/><path stroke-miterlimit="10" fill="none" stroke="#000" d="m204.323 24.036-2.506-5.04 2.513 1.26 2.528-1.253-2.535 5.033z" stroke-width=".72008"/><path d="M56.706 40.145V16.742c0-.287.055-.562.165-.827a2.14 2.14 0 0 1 .468-.7 2.14 2.14 0 0 1 .7-.469c.266-.11.541-.164.828-.164h10.08c.287 0 .563.054.827.164.265.11.499.266.701.468.203.203.359.437.469.701.11.265.164.54.164.827v23.403c0 .286-.055.562-.164.826a2.14 2.14 0 0 1-.469.701 2.14 2.14 0 0 1-.7.468 2.14 2.14 0 0 1-.827.165H58.867a2.14 2.14 0 0 1-.827-.165 2.14 2.14 0 0 1-.7-.468 2.14 2.14 0 0 1-.47-.7 2.14 2.14 0 0 1-.164-.827z" fill="#fff2cc"/><path fill="none" stroke="#000" d="M56.706 40.145V16.742c0-.287.055-.562.165-.827a2.14 2.14 0 0 1 .468-.7 2.14 2.14 0 0 1 .7-.469c.266-.11.541-.164.828-.164h10.08c.287 0 .563.054.827.164.265.11.499.266.701.468.203.203.359.437.469.701.11.265.164.54.164.827v23.403c0 .286-.055.562-.164.826a2.14 2.14 0 0 1-.469.701 2.14 2.14 0 0 1-.7.468 2.14 2.14 0 0 1-.827.165H58.867a2.14 2.14 0 0 1-.827-.165 2.14 2.14 0 0 1-.7-.468 2.14 2.14 0 0 1-.47-.7 2.14 2.14 0 0 1-.164-.827z" stroke-width=".72008"/><symbol id="d"><path d="M.159 0H0v.715L.19.72C.296.72.379.69.439.628A.327.327 0 0 0 .53.386C.53.129.406 0 .16 0M.127.604V.116A.703.703 0 0 1 .193.113a.18.18 0 0 1 .15.07.31.31 0 0 1 .055.195c0 .153-.07.23-.213.23A.688.688 0 0 1 .127.603z"/></symbol><symbol id="e"><path d="m0 .052.047.114C.097.13.147.113.195.113c.074 0 .112.026.112.078A.11.11 0 0 1 .28.26a.336.336 0 0 1-.109.074.546.546 0 0 0-.11.068.188.188 0 0 0-.06.144c0 .056.02.102.061.138.04.037.093.055.156.055C.301.74.362.724.4.693L.362.584A.239.239 0 0 1 .22.632.095.095 0 0 1 .152.608a.08.08 0 0 1-.024-.06c0-.04.046-.083.137-.128A.438.438 0 0 0 .368.355.196.196 0 0 0 .417.287.221.221 0 0 0 .433.199.177.177 0 0 0 .364.056.28.28 0 0 0 .181 0 .327.327 0 0 0 0 .052z"/></symbol><use xlink:href="#d" transform="matrix(0 -7.9209 -7.9209 0 66.427 31.902)"/><use xlink:href="#e" transform="matrix(0 -7.9209 -7.9209 0 66.524 27.08)"/><path d="M117.373 40.145V16.742c0-.287.055-.562.165-.827a2.14 2.14 0 0 1 .468-.7 2.14 2.14 0 0 1 .7-.469c.265-.11.541-.164.827-.164h10.082c.286 0 .562.054.826.164.265.11.499.266.701.468.203.203.359.437.468.701.11.265.165.54.165.827v23.403c0 .286-.055.562-.165.826a2.14 2.14 0 0 1-.468.701 2.14 2.14 0 0 1-.7.468 2.14 2.14 0 0 1-.827.165h-10.082a2.14 2.14 0 0 1-.826-.165 2.14 2.14 0 0 1-.701-.468 2.14 2.14 0 0 1-.468-.7 2.14 2.14 0 0 1-.165-.827z" fill="#fff"/><path fill="none" stroke="#000" d="M117.373 40.145V16.742c0-.287.055-.562.165-.827a2.14 2.14 0 0 1 .468-.7 2.14 2.14 0 0 1 .7-.469c.265-.11.541-.164.827-.164h10.082c.286 0 .562.054.826.164.265.11.499.266.701.468.203.203.359.437.468.701.11.265.165.54.165.827v23.403c0 .286-.055.562-.165.826a2.14 2.14 0 0 1-.468.701 2.14 2.14 0 0 1-.7.468 2.14 2.14 0 0 1-.827.165h-10.082a2.14 2.14 0 0 1-.826-.165 2.14 2.14 0 0 1-.701-.468 2.14 2.14 0 0 1-.468-.7 2.14 2.14 0 0 1-.165-.827z" stroke-width=".72008"/><symbol id="f"><path d="m0 .07.063.098a.168.168 0 0 1 .124-.06c.08 0 .12.038.12.114a.109.109 0 0 1-.035.084.134.134 0 0 1-.094.032H.155v.105h.02c.072 0 .109.03.109.091C.284.598.25.63.182.63.146.63.112.613.079.58L.02.667a.245.245 0 0 0 .17.07A.256.256 0 0 0 .355.69a.166.166 0 0 0 .06-.137c0-.07-.03-.122-.09-.159A.185.185 0 0 0 .44.214.194.194 0 0 0 .372.056.283.283 0 0 0 .185 0 .265.265 0 0 0 0 .07z"/></symbol><symbol id="g"><path d="M.4 0 .264.17.145 0H0l.2.268-.184.255h.14l.11-.16.124.16h.139l-.2-.255L.546 0H.4z"/></symbol><use xlink:href="#f" transform="matrix(0 -7.9209 -7.9209 0 127.172 34.36)"/><use xlink:href="#g" transform="matrix(0 -7.9209 -7.9209 0 127.094 30.252)"/><use xlink:href="#f" transform="matrix(0 -7.9209 -7.9209 0 127.172 25.346)"/><path stroke-miterlimit="10" fill="none" stroke="#000" d="M37.084 28.443H53.02" stroke-width=".72008"/><path d="m55.9 28.443-2.88 1.44v-2.88l2.88 1.44z"/><path stroke-miterlimit="10" fill="none" stroke="#000" d="m55.9 28.443-2.88 1.44v-2.88l2.88 1.44z" stroke-width=".72008"/><path d="M45.365 24.483h3.6v8.64h-3.6z" fill="#fff"/><use xlink:href="#f" transform="matrix(7.20081 0 0 -7.20081 45.564 31.034)"/><path d="M26.224 30.337c-.144-.017-.622-.026-1.433-.026-.817 0-1.298.009-1.442.026h-.104v-.53h.913v-4.795h-.913v-.53h.104c.144.018.625.026 1.442.026.811 0 1.29-.008 1.433-.025h.104v.529h-.913v4.796h.913v.529h-.104z"/><path fill="none" d="M26.224 30.337c-.144-.017-.622-.026-1.433-.026-.817 0-1.298.009-1.442.026h-.104v-.53h.913v-4.795h-.913v-.53h.104c.144.018.625.026 1.442.026.811 0 1.29-.008 1.433-.025h.104v.529h-.913v4.796h.913v.529h-.104z"/><path d="M30.442 29.897c-.008.02-.034.296-.08.827-.045.531-.077.82-.096.869v.024h-3.244v-.374h.611v-3.39h-.611v-.375h.068c.09.012.424.018 1.002.018a48.574 48.574 0 0 0 1.116-.018h.079v.374h-.765v3.39H28.941c.43 0 .735-.152.912-.458a.982.982 0 0 0 .108-.24l.062-.218c.015-.056.028-.139.04-.248.01-.108.02-.176.028-.205h.351v.024z"/><path fill="none" d="M30.442 29.897c-.008.02-.034.296-.08.827-.045.531-.077.82-.096.869v.024h-3.244v-.374h.611v-3.39h-.611v-.375h.068c.09.012.424.018 1.002.018a48.574 48.574 0 0 0 1.116-.018h.079v.374h-.765v3.39H28.941c.43 0 .735-.152.912-.458a.982.982 0 0 0 .108-.24l.062-.218c.015-.056.028-.139.04-.248.01-.108.02-.176.028-.205h.351v.024z"/><path d="M32.95 31.617c-.09-.012-.415-.018-.973-.018-.555 0-.878.006-.969.018h-.068v-.374h.612v-3.39h-.612v-.375H32.413c.162 0 .28-.002.356-.006.442 0 .804.036 1.088.109.283.072.522.225.719.458a.93.93 0 0 1 .198.58c0 .43-.28.75-.838.959a.06.06 0 0 0 .023.012c.01.004.02.012.028.024.106.06.192.125.26.193a.647.647 0 0 1 .153.253c.034.101.057.181.068.242.011.06.023.153.034.277.038.298.078.491.119.58.068.144.18.217.334.217.083 0 .144-.028.181-.085a.62.62 0 0 0 .085-.205c.02-.08.03-.127.034-.139.015-.024.064-.036.147-.036h.023c.057 0 .096.008.119.024.023.016.034.059.034.127a.755.755 0 0 1-.034.175.779.779 0 0 1-.102.199.523.523 0 0 1-.21.175.801.801 0 0 1-.328.072c-.411 0-.711-.046-.9-.138a.754.754 0 0 1-.39-.453c-.02-.068-.03-.231-.03-.489v-.06c0-.032.003-.064.006-.096 0-.383-.13-.622-.39-.718-.053-.02-.208-.03-.465-.03h-.328v1.544h.612v.374h-.068zm-.158-2.226c.351-.004.585-.028.702-.073.22-.084.329-.275.329-.573v-.247c0-.246-.066-.413-.199-.501-.128-.097-.356-.145-.685-.145h-.532v1.539h.385z"/><path fill="none" d="M32.95 31.617c-.09-.012-.415-.018-.973-.018-.555 0-.878.006-.969.018h-.068v-.374h.612v-3.39h-.612v-.375H32.413c.162 0 .28-.002.356-.006.442 0 .804.036 1.088.109.283.072.522.225.719.458a.93.93 0 0 1 .198.58c0 .43-.28.75-.838.959a.06.06 0 0 0 .023.012c.01.004.02.012.028.024.106.06.192.125.26.193a.647.647 0 0 1 .153.253c.034.101.057.181.068.242.011.06.023.153.034.277.038.298.078.491.119.58.068.144.18.217.334.217.083 0 .144-.028.181-.085a.62.62 0 0 0 .085-.205c.02-.08.03-.127.034-.139.015-.024.064-.036.147-.036h.023c.057 0 .096.008.119.024.023.016.034.059.034.127a.755.755 0 0 1-.034.175.779.779 0 0 1-.102.199.523.523 0 0 1-.21.175.801.801 0 0 1-.328.072c-.411 0-.711-.046-.9-.138a.754.754 0 0 1-.39-.453c-.02-.068-.03-.231-.03-.489v-.06c0-.032.003-.064.006-.096 0-.383-.13-.622-.39-.718-.053-.02-.208-.03-.465-.03h-.328v1.544h.612v.374h-.068zm-.158-2.226c.351-.004.585-.028.702-.073.22-.084.329-.275.329-.573v-.247c0-.246-.066-.413-.199-.501-.128-.097-.356-.145-.685-.145h-.532v1.539h.385z"/><path d="M159.498 40.145V16.742c0-.287.055-.562.164-.827a2.14 2.14 0 0 1 .469-.7 2.14 2.14 0 0 1 .7-.469c.265-.11.54-.164.827-.164h10.081c.287 0 .562.054.827.164.265.11.498.266.7.468a2.14 2.14 0 0 1 .633 1.528v23.403c0 .286-.054.562-.164.826a2.14 2.14 0 0 1-.468.701 2.14 2.14 0 0 1-.701.468 2.14 2.14 0 0 1-.827.165h-10.08a2.14 2.14 0 0 1-.827-.165 2.14 2.14 0 0 1-.701-.468 2.14 2.14 0 0 1-.469-.7 2.14 2.14 0 0 1-.164-.827z" fill="#fff"/><path fill="none" stroke="#000" d="M159.498 40.145V16.742c0-.287.055-.562.164-.827a2.14 2.14 0 0 1 .469-.7 2.14 2.14 0 0 1 .7-.469c.265-.11.54-.164.827-.164h10.081c.287 0 .562.054.827.164.265.11.498.266.7.468a2.14 2.14 0 0 1 .633 1.528v23.403c0 .286-.054.562-.164.826a2.14 2.14 0 0 1-.468.701 2.14 2.14 0 0 1-.701.468 2.14 2.14 0 0 1-.827.165h-10.08a2.14 2.14 0 0 1-.827-.165 2.14 2.14 0 0 1-.701-.468 2.14 2.14 0 0 1-.469-.7 2.14 2.14 0 0 1-.164-.827z" stroke-width=".72008"/><use xlink:href="#f" transform="matrix(0 -7.9209 -7.9209 0 169.296 34)"/><use xlink:href="#g" transform="matrix(0 -7.9209 -7.9209 0 169.22 29.892)"/><use xlink:href="#f" transform="matrix(0 -7.9209 -7.9209 0 169.296 24.986)"/><path stroke-miterlimit="10" fill="none" stroke="#000" d="M131.775 28.443h24.036" stroke-width=".72008"/><path d="m158.691 28.443-2.88 1.44v-2.88l2.88 1.44z"/><path stroke-miterlimit="10" fill="none" stroke="#000" d="m158.691 28.443-2.88 1.44v-2.88l2.88 1.44z" stroke-width=".72008"/><path d="M142.576 24.483h7.921v8.64h-7.92z" fill="#f5f5f5"/><use xlink:href="#b" transform="matrix(7.20081 0 0 -7.20081 142.793 31.034)"/><use xlink:href="#c" transform="matrix(7.20081 0 0 -7.20081 146.726 30.963)"/><path stroke-miterlimit="10" fill="none" stroke="#000" d="M207.923 28.443h14.438-7.2 10.678" stroke-width=".72008"/><path d="m228.72 28.443-2.88 1.44v-2.88l2.88 1.44z"/><path stroke-miterlimit="10" fill="none" stroke="#000" d="m228.72 28.443-2.88 1.44v-2.88l2.88 1.44z" stroke-width=".72008"/><path d="M214.584 24.483h7.921v8.64h-7.92z" fill="#fff"/><use xlink:href="#b" transform="matrix(7.20081 0 0 -7.20081 214.801 31.034)"/><use xlink:href="#c" transform="matrix(7.20081 0 0 -7.20081 218.734 30.963)"/><path d="M207.923 28.443c0 .478-.09.937-.274 1.378-.182.441-.442.83-.78 1.168a3.566 3.566 0 0 1-1.168.78c-.441.183-.9.275-1.378.275-.477 0-.937-.092-1.378-.274a3.566 3.566 0 0 1-1.168-.78 3.566 3.566 0 0 1-.78-1.169 3.566 3.566 0 0 1-.274-1.378c0-.477.091-.937.274-1.378.182-.44.443-.83.78-1.168a3.566 3.566 0 0 1 1.168-.78c.441-.183.9-.274 1.378-.274.477 0 .937.091 1.378.274.44.183.83.443 1.168.78.338.338.598.727.78 1.168.183.441.274.9.274 1.378z" fill="#fff"/><path fill="none" stroke="#000" d="M207.923 28.443c0 .478-.09.937-.274 1.378-.182.441-.442.83-.78 1.168a3.566 3.566 0 0 1-1.168.78c-.441.183-.9.275-1.378.275-.477 0-.937-.092-1.378-.274a3.566 3.566 0 0 1-1.168-.78 3.566 3.566 0 0 1-.78-1.169 3.566 3.566 0 0 1-.274-1.378c0-.477.091-.937.274-1.378.182-.44.443-.83.78-1.168a3.566 3.566 0 0 1 1.168-.78c.441-.183.9-.274 1.378-.274.477 0 .937.091 1.378.274.44.183.83.443 1.168.78.338.338.598.727.78 1.168.183.441.274.9.274 1.378z" stroke-width=".72008"/><symbol id="h"><path d="M.268.173V0H.17v.173H0v.098h.17V.44h.098V.271h.17V.173h-.17z"/></symbol><use xlink:href="#h" transform="matrix(8.64097 0 0 -8.64097 201.943 30.204)"/><path stroke-miterlimit="10" fill="none" stroke="#000" d="M173.9 28.443h23.136" stroke-width=".72008"/><path d="m199.916 28.443-2.88 1.44v-2.88l2.88 1.44z"/><path stroke-miterlimit="10" fill="none" stroke="#000" d="m199.916 28.443-2.88 1.44v-2.88l2.88 1.44z" stroke-width=".72008"/><path d="M183.62 24.483h7.922v8.64h-7.921z" fill="#f5f5f5"/><use xlink:href="#b" transform="matrix(7.20081 0 0 -7.20081 183.838 31.034)"/><use xlink:href="#c" transform="matrix(7.20081 0 0 -7.20081 187.77 30.963)"/><path stroke-miterlimit="10" fill="none" stroke="#000" d="M243.927 28.443h25.679" stroke-width=".72008"/><path d="m272.486 28.443-2.88 1.44v-2.88l2.88 1.44z"/><path stroke-miterlimit="10" fill="none" stroke="#000" d="m272.486 28.443-2.88 1.44v-2.88l2.88 1.44z" stroke-width=".72008"/><path d="M249.148 24.483h12.241v8.64h-12.24z" fill="#fff"/><symbol id="i"><path d="M.146 0v.516L0 .428V.55a.64.64 0 0 1 .222.168h.05V0H.146z"/></symbol><symbol id="j"><path d="M0 .39c0 .097.024.18.071.247a.224.224 0 0 0 .192.1c.166 0 .25-.12.25-.363A.485.485 0 0 0 .444.102.214.214 0 0 0 .255 0C.17 0 .106.031.063.094.021.156 0 .254 0 .389M.132.38c0-.095.01-.165.028-.21C.178.125.209.103.252.103c.047 0 .08.02.1.06C.37.203.38.276.38.38c0 .097-.01.163-.028.2A.095.095 0 0 1 .26.635C.175.635.132.55.132.38z"/></symbol><symbol id="k"><path d="M.115.401a.207.207 0 0 0-.09.157c0 .055.02.099.059.131.039.033.089.049.15.049A.223.223 0 0 0 .387.689.166.166 0 0 0 .442.558c0-.03-.01-.06-.03-.093A.189.189 0 0 0 .344.397.22.22 0 0 0 .43.32.186.186 0 0 0 .47.214.2.2 0 0 0 .404.056.254.254 0 0 0 .231 0a.245.245 0 0 0-.17.055C.02.092 0 .145 0 .215A.2.2 0 0 0 .032.32.24.24 0 0 0 .115.4m.13.05a.116.116 0 0 1 .049.046.124.124 0 0 1 .02.063.064.064 0 0 1-.022.05.086.086 0 0 1-.058.02C.18.63.153.606.153.56c0-.022.01-.043.03-.065A.17.17 0 0 1 .246.45M.22.35C.158.315.127.27.127.214c0-.03.01-.056.029-.076A.1.1 0 0 1 .23.108c.033 0 .06.009.08.026.02.018.031.042.031.07 0 .05-.04.099-.122.146z"/></symbol><use xlink:href="#i" transform="matrix(7.20081 0 0 -7.20081 249.898 30.963)"/><use xlink:href="#j" transform="matrix(7.20081 0 0 -7.20081 253.429 31.034)"/><use xlink:href="#k" transform="matrix(7.20081 0 0 -7.20081 257.796 31.034)"/><path d="M229.526 40.144V16.742c0-.287.055-.562.164-.827a2.14 2.14 0 0 1 .469-.7 2.14 2.14 0 0 1 .7-.469c.265-.11.54-.164.827-.164h10.081c.287 0 .562.054.827.164.265.11.498.266.7.468.203.203.36.437.469.701.11.265.164.54.164.827v23.402c0 .287-.054.563-.164.827a2.14 2.14 0 0 1-.468.701 2.14 2.14 0 0 1-.701.468 2.14 2.14 0 0 1-.827.165h-10.08a2.14 2.14 0 0 1-.828-.165 2.139 2.139 0 0 1-.7-.468 2.14 2.14 0 0 1-.469-.7 2.14 2.14 0 0 1-.164-.828z" fill="#fff"/><path fill="none" stroke="#000" d="M229.526 40.144V16.742c0-.287.055-.562.164-.827a2.14 2.14 0 0 1 .469-.7 2.14 2.14 0 0 1 .7-.469c.265-.11.54-.164.827-.164h10.081c.287 0 .562.054.827.164.265.11.498.266.7.468.203.203.36.437.469.701.11.265.164.54.164.827v23.402c0 .287-.054.563-.164.827a2.14 2.14 0 0 1-.468.701 2.14 2.14 0 0 1-.701.468 2.14 2.14 0 0 1-.827.165h-10.08a2.14 2.14 0 0 1-.828-.165 2.139 2.139 0 0 1-.7-.468 2.14 2.14 0 0 1-.469-.7 2.14 2.14 0 0 1-.164-.828z" stroke-width=".72008"/><use xlink:href="#f" transform="matrix(0 -7.9209 -7.9209 0 239.324 34.18)"/><use xlink:href="#g" transform="matrix(0 -7.9209 -7.9209 0 239.247 30.072)"/><use xlink:href="#f" transform="matrix(0 -7.9209 -7.9209 0 239.324 25.166)"/><path stroke-miterlimit="10" fill="none" stroke="#000" d="M285.066 28.443h14.761" stroke-width=".72008"/><path d="m302.708 28.443-2.88 1.44v-2.88l2.88 1.44z"/><path stroke-miterlimit="10" fill="none" stroke="#000" d="m302.708 28.443-2.88 1.44v-2.88l2.88 1.44z" stroke-width=".72008"/><path d="M292.353 24.483h3.6v8.64h-3.6z" fill="#fff"/><use xlink:href="#f" transform="matrix(7.20081 0 0 -7.20081 292.552 31.034)"/><path d="m285.059 43.709-11.774-6.711V19.88l11.774-6.71v30.538z" fill="#f8e7e7"/><path stroke-miterlimit="10" fill="none" stroke="#000" d="m285.059 43.709-11.774-6.711V19.88l11.774-6.71v30.538z" stroke-width=".72008"/><symbol id="l"><path d="M.008 0v.037l.226.334a.322.322 0 0 1 .068.168C.302.593.27.62.205.62.155.62.115.594.085.542L0 .609a.209.209 0 0 0 .08.085.223.223 0 0 0 .12.034c.073 0 .13-.017.172-.05A.168.168 0 0 0 .434.539a.399.399 0 0 0-.08-.203L.208.113h.269V0h-.47z"/></symbol><use xlink:href="#d" transform="matrix(0 -7.20081 -7.20081 0 281.703 33.967)"/><use xlink:href="#l" transform="matrix(0 -7.20081 -7.20081 0 281.703 29.375)"/><use xlink:href="#e" transform="matrix(0 -7.20081 -7.20081 0 281.79 25.363)"/><path d="M309.438 32.48c-.154-.018-.665-.026-1.532-.026-.874 0-1.387.008-1.542.026h-.11v-.536h.975v-4.858h-.976v-.536h.111c.155.017.668.026 1.542.026.867 0 1.378-.01 1.532-.026h.112v.536h-.976v4.858h.976v.536h-.112z"/><path fill="none" d="M309.438 32.48c-.154-.018-.665-.026-1.532-.026-.874 0-1.387.008-1.542.026h-.11v-.536h.975v-4.858h-.976v-.536h.111c.155.017.668.026 1.542.026.867 0 1.378-.01 1.532-.026h.112v.536h-.976v4.858h.976v.536h-.112z"/><path d="M312.477 33.776c-.097-.012-.448-.018-1.054-.018-.61 0-.962.006-1.06.018h-.072v-.379h.654v-3.434h-.654v-.38h.073c.097.013.45.02 1.06.02.605 0 .956-.007 1.053-.02h.072v.38h-.654v1.442h1.762v-1.442h-.654v-.38h.073c.097.013.448.02 1.053.02.61 0 .963-.007 1.06-.02h.072v.38h-.653v3.434h.653v.38h-.072c-.097-.013-.448-.019-1.054-.019-.61 0-.962.006-1.06.018h-.072v-.379h.654v-1.613h-1.762v1.613h.654v.38h-.072z"/><path fill="none" d="M312.477 33.776c-.097-.012-.448-.018-1.054-.018-.61 0-.962.006-1.06.018h-.072v-.379h.654v-3.434h-.654v-.38h.073c.097.013.45.02 1.06.02.605 0 .956-.007 1.053-.02h.072v.38h-.654v1.442h1.762v-1.442h-.654v-.38h.073c.097.013.448.02 1.053.02.61 0 .963-.007 1.06-.02h.072v.38h-.653v3.434h.653v.38h-.072c-.097-.013-.448-.019-1.054-.019-.61 0-.962.006-1.06.018h-.072v-.379h.654v-1.613h-1.762v1.613h.654v.38h-.072z"/><path d="M317.889 33.776c-.097-.012-.444-.018-1.041-.018-.594 0-.939.006-1.036.018h-.072v-.379h.653v-3.434h-.653v-.38H317.314c.173 0 .3-.001.381-.005.472 0 .86.036 1.162.11.303.073.56.228.77.464.14.175.211.371.211.587 0 .436-.298.76-.896.972a.065.065 0 0 0 .024.012.058.058 0 0 1 .03.024c.114.061.207.127.28.196a.65.65 0 0 1 .163.257c.036.101.06.183.072.244.012.061.024.155.037.281.04.302.082.497.127.587a.37.37 0 0 0 .357.22c.089 0 .153-.029.194-.086a.61.61 0 0 0 .09-.207c.02-.082.033-.129.037-.141.016-.024.068-.037.157-.037h.024c.06 0 .103.008.128.025.024.016.036.059.036.128a.73.73 0 0 1-.036.177.774.774 0 0 1-.11.202.553.553 0 0 1-.223.177.896.896 0 0 1-.352.074c-.44 0-.76-.047-.962-.14a.777.777 0 0 1-.418-.46c-.02-.069-.03-.234-.03-.494v-.061c0-.033.002-.066.006-.098 0-.387-.14-.63-.418-.728-.056-.02-.222-.03-.496-.03h-.351v1.564h.653v.38h-.072zm-.17-2.255c.376-.004.626-.028.751-.073.234-.086.351-.28.351-.58v-.251c0-.249-.07-.418-.212-.508-.137-.097-.381-.146-.732-.146h-.569v1.558h.411z"/><path fill="none" d="M317.889 33.776c-.097-.012-.444-.018-1.041-.018-.594 0-.939.006-1.036.018h-.072v-.379h.653v-3.434h-.653v-.38H317.314c.173 0 .3-.001.381-.005.472 0 .86.036 1.162.11.303.073.56.228.77.464.14.175.211.371.211.587 0 .436-.298.76-.896.972a.065.065 0 0 0 .024.012.058.058 0 0 1 .03.024c.114.061.207.127.28.196a.65.65 0 0 1 .163.257c.036.101.06.183.072.244.012.061.024.155.037.281.04.302.082.497.127.587a.37.37 0 0 0 .357.22c.089 0 .153-.029.194-.086a.61.61 0 0 0 .09-.207c.02-.082.033-.129.037-.141.016-.024.068-.037.157-.037h.024c.06 0 .103.008.128.025.024.016.036.059.036.128a.73.73 0 0 1-.036.177.774.774 0 0 1-.11.202.553.553 0 0 1-.223.177.896.896 0 0 1-.352.074c-.44 0-.76-.047-.962-.14a.777.777 0 0 1-.418-.46c-.02-.069-.03-.234-.03-.494v-.061c0-.033.002-.066.006-.098 0-.387-.14-.63-.418-.728-.056-.02-.222-.03-.496-.03h-.351v1.564h.653v.38h-.072zm-.17-2.255c.376-.004.626-.028.751-.073.234-.086.351-.28.351-.58v-.251c0-.249-.07-.418-.212-.508-.137-.097-.381-.146-.732-.146h-.569v1.558h.411z"/><path d="M305.495 25.642c-.051 0-.091-.06-.12-.182a1.389 1.389 0 0 1-.042-.31.15.15 0 0 1 .008-.061c.012-.018 1.364-.337 4.059-.96 2.694-.622 4.07-.936 4.127-.942.012 0 1.365.308 4.06.925 2.694.617 4.06.934 4.1.95.035 0 .052.03.052.087 0 .064-.014.162-.043.294-.028.133-.068.199-.12.199-.011 0-1.355-.268-4.033-.804l-3.999-.83-4.016.83c-2.683.536-4.027.804-4.033.804z"/><path fill="none" d="M305.495 25.642c-.051 0-.091-.06-.12-.182a1.389 1.389 0 0 1-.042-.31.15.15 0 0 1 .008-.061c.012-.018 1.364-.337 4.059-.96 2.694-.622 4.07-.936 4.127-.942.012 0 1.365.308 4.06.925 2.694.617 4.06.934 4.1.95.035 0 .052.03.052.087 0 .064-.014.162-.043.294-.028.133-.068.199-.12.199-.011 0-1.355-.268-4.033-.804l-3.999-.83-4.016.83c-2.683.536-4.027.804-4.033.804z"/><symbol id="m"><path d="m.002.043.043.098A.193.193 0 0 1 .17.097c.047 0 .071.017.071.05 0 .02-.007.037-.021.05a.328.328 0 0 1-.084.045C.045.279 0 .332 0 .399c0 .045.017.08.052.105a.217.217 0 0 0 .132.038.333.333 0 0 0 .153-.036L.302.41a.166.166 0 0 1-.111.034C.148.445.127.428.127.395c0-.014.007-.026.02-.037a.439.439 0 0 1 .09-.043.229.229 0 0 0 .1-.065.146.146 0 0 0 .03-.094.137.137 0 0 0-.054-.114A.234.234 0 0 0 .167 0a.325.325 0 0 0-.084.009.4.4 0 0 0-.081.034z"/></symbol><symbol id="n"><path d="M0 .205v.098h.438V.205H0M0 0v.098h.438V0H0z"/></symbol><use xlink:href="#m" transform="matrix(5.76065 0 0 -5.76065 120.853 48.302)"/><use xlink:href="#n" transform="matrix(5.76065 0 0 -5.76065 123.656 47.331)"/><use xlink:href="#i" transform="matrix(5.76065 0 0 -5.76065 127.29 48.245)"/><symbol id="o"><path d="M.122.218V0H0v.728h.122V.693c.03.03.068.045.113.045.167 0 .25-.092.25-.276C.485.377.462.311.415.265a.254.254 0 0 0-.188-.07.238.238 0 0 0-.105.023m0 .382V.325A.12.12 0 0 1 .2.298c.056 0 .096.014.12.04.026.027.038.07.038.128C.358.528.346.57.32.596.297.622.257.634.201.634A.108.108 0 0 1 .121.6z"/></symbol><use xlink:href="#o" transform="matrix(5.76065 0 0 -5.76065 120.555 56.628)"/><use xlink:href="#n" transform="matrix(5.76065 0 0 -5.76065 124.093 54.532)"/><use xlink:href="#i" transform="matrix(5.76065 0 0 -5.76065 127.728 55.446)"/><path d="M24.358 42.344c-.08-.01-.375-.016-.88-.016-.51 0-.806.006-.887.016h-.06v-.313h.546v-2.834h-.546v-.313h.06c.081.01.377.016.886.016.506 0 .8-.006.881-.016h.06v.313h-.546v1.19h1.473v-1.19h-.547v-.313h.061c.081.01.375.016.881.016.51 0 .805-.006.886-.016h.06v.313h-.546v2.834h.547v.313h-.061c-.081-.01-.375-.016-.88-.016-.51 0-.806.006-.887.016h-.06v-.313h.546V40.7h-1.473v1.331h.547v.313h-.06z"/><path fill="none" d="M24.358 42.344c-.08-.01-.375-.016-.88-.016-.51 0-.806.006-.887.016h-.06v-.313h.546v-2.834h-.546v-.313h.06c.081.01.377.016.886.016.506 0 .8-.006.881-.016h.06v.313h-.546v1.19h1.473v-1.19h-.547v-.313h.061c.081.01.375.016.881.016.51 0 .805-.006.886-.016h.06v.313h-.546v2.834h.547v.313h-.061c-.081-.01-.375-.016-.88-.016-.51 0-.806.006-.887.016h-.06v-.313h.546V40.7h-1.473v1.331h.547v.313h-.06z"/><path d="M27.74 39.822c0-.05.016-.087.05-.11a.214.214 0 0 1 .086-.041h.015c.03 0 .065.015.102.045.037.03.145.137.324.318l.248.247.587.58.587-.58c.375-.373.575-.568.602-.585a.102.102 0 0 1 .066-.02c.054 0 .093.015.117.045.023.03.037.066.04.106v.005a.14.14 0 0 1-.03.086c-.02.027-.112.118-.274.272l-.303.303-.587.585.587.585c.374.376.568.575.582.595.013.02.022.045.025.076a.16.16 0 0 1-.035.1c-.024.03-.064.047-.122.05h-.015c-.024 0-.054-.016-.091-.05a16.153 16.153 0 0 1-.334-.327l-.228-.227-.587-.58-.587.585c-.385.38-.593.578-.623.595a.057.057 0 0 1-.025.005h-.03c-.099 0-.147-.05-.147-.151 0-.037.016-.074.05-.111.034-.037.22-.224.557-.56l.587-.58-.587-.585c-.375-.38-.569-.58-.582-.6a.167.167 0 0 1-.025-.076z"/><path fill="none" d="M27.74 39.822c0-.05.016-.087.05-.11a.214.214 0 0 1 .086-.041h.015c.03 0 .065.015.102.045.037.03.145.137.324.318l.248.247.587.58.587-.58c.375-.373.575-.568.602-.585a.102.102 0 0 1 .066-.02c.054 0 .093.015.117.045.023.03.037.066.04.106v.005a.14.14 0 0 1-.03.086c-.02.027-.112.118-.274.272l-.303.303-.587.585.587.585c.374.376.568.575.582.595.013.02.022.045.025.076a.16.16 0 0 1-.035.1c-.024.03-.064.047-.122.05h-.015c-.024 0-.054-.016-.091-.05a16.153 16.153 0 0 1-.334-.327l-.228-.227-.587-.58-.587.585c-.385.38-.593.578-.623.595a.057.057 0 0 1-.025.005h-.03c-.099 0-.147-.05-.147-.151 0-.037.016-.074.05-.111.034-.037.22-.224.557-.56l.587-.58-.587-.585c-.375-.38-.569-.58-.582-.6a.167.167 0 0 1-.025-.076z"/><path d="m36.046 38.884.694.016c.304 0 .48-.006.532-.016h.035v.313h-.46l-.588 1.533a1730.703 1730.703 0 0 0-.597 1.563.183.183 0 0 1-.066.076.52.52 0 0 1-.137.01h-.035a.326.326 0 0 1-.101-.01c-.017-.007-.04-.032-.066-.076a50.718 50.718 0 0 1-.42-1.1l-.415-1.078-.416 1.079a157.202 157.202 0 0 1-.425 1.104.16.16 0 0 1-.06.07.52.52 0 0 1-.137.01h-.05c-.078 0-.129-.028-.153-.085a2.76 2.76 0 0 0-.076-.207l-.232-.6a57.67 57.67 0 0 1-.289-.756l-.582-1.533h-.466v-.313h.056c.03.01.28.016.749.016.5 0 .79-.006.87-.016h.067v.313h-.228c-.152 0-.228.002-.228.005l.805 2.098.314-.817.313-.817-.177-.469h-.465v-.313h.055c.03.01.28.016.75.016.499 0 .79-.006.87-.016h.066v.313h-.228c-.152 0-.228.002-.228.005l.805 2.098c.004 0 .139-.35.405-1.05.267-.698.4-1.05.4-1.053h-.511v-.313h.05z"/><path fill="none" d="m36.046 38.884.694.016c.304 0 .48-.006.532-.016h.035v.313h-.46l-.588 1.533a1730.703 1730.703 0 0 0-.597 1.563.183.183 0 0 1-.066.076.52.52 0 0 1-.137.01h-.035a.326.326 0 0 1-.101-.01c-.017-.007-.04-.032-.066-.076a50.718 50.718 0 0 1-.42-1.1l-.415-1.078-.416 1.079a157.202 157.202 0 0 1-.425 1.104.16.16 0 0 1-.06.07.52.52 0 0 1-.137.01h-.05c-.078 0-.129-.028-.153-.085a2.76 2.76 0 0 0-.076-.207l-.232-.6a57.67 57.67 0 0 1-.289-.756l-.582-1.533h-.466v-.313h.056c.03.01.28.016.749.016.5 0 .79-.006.87-.016h.067v.313h-.228c-.152 0-.228.002-.228.005l.805 2.098.314-.817.313-.817-.177-.469h-.465v-.313h.055c.03.01.28.016.75.016.499 0 .79-.006.87-.016h.066v.313h-.228c-.152 0-.228.002-.228.005l.805 2.098c.004 0 .139-.35.405-1.05.267-.698.4-1.05.4-1.053h-.511v-.313h.05z"/><path d="M96.13 39.622c-.083-.01-.386-.016-.908-.016-.525 0-.83.005-.913.016h-.062v-.327h.563v-2.964h-.563v-.327h.062c.084.01.388.016.913.016.522 0 .825-.005.908-.016h.063v.327h-.564v1.245h1.518V36.33h-.563v-.327h.062c.084.01.386.016.908.016.525 0 .83-.005.913-.016h.063v.327h-.564v2.964h.564v.327h-.063c-.083-.01-.386-.016-.908-.016-.525 0-.83.005-.913.016h-.062v-.327h.563v-1.392H95.63v1.392h.564v.327h-.063z"/><path fill="none" d="M96.13 39.622c-.083-.01-.386-.016-.908-.016-.525 0-.83.005-.913.016h-.062v-.327h.563v-2.964h-.563v-.327h.062c.084.01.388.016.913.016.522 0 .825-.005.908-.016h.063v.327h-.564v1.245h1.518V36.33h-.563v-.327h.062c.084.01.386.016.908.016.525 0 .83-.005.913-.016h.063v.327h-.564v2.964h.564v.327h-.063c-.083-.01-.386-.016-.908-.016-.525 0-.83.005-.913.016h-.062v-.327h.563v-1.392H95.63v1.392h.564v.327h-.063z"/><path d="M95.804 43.746c0 .007.017.021.052.043.035.02.07.058.104.11a.39.39 0 0 1 .053.217c0 .15-.042.258-.126.321a.455.455 0 0 1-.563.005c-.083-.063-.127-.174-.13-.332 0-.165.057-.307.172-.427a.956.956 0 0 1 .401-.253 1.54 1.54 0 0 1 .475-.074c.24 0 .456.03.647.09.236.095.412.225.527.39a.94.94 0 0 1 .172.548c0 .204-.06.378-.183.523-.121.144-.32.316-.594.516-.098.067-.277.204-.538.412l-.286.232h.333c.494 0 .764-.009.809-.026.035-.011.066-.083.094-.217.028-.133.042-.223.042-.269h.323v.021c-.003.011-.031.211-.083.602-.042.386-.068.589-.079.606v.021h-2.238v-.132c0-.091.002-.142.006-.153a8.24 8.24 0 0 1 .266-.274 46.306 46.306 0 0 0 .933-.975c.265-.303.397-.596.397-.881 0-.2-.063-.368-.188-.501a.677.677 0 0 0-.506-.206.693.693 0 0 0-.156.016c-.046.01-.08.02-.105.026-.024.007-.035.014-.031.021z"/><path fill="none" d="M95.804 43.746c0 .007.017.021.052.043.035.02.07.058.104.11a.39.39 0 0 1 .053.217c0 .15-.042.258-.126.321a.455.455 0 0 1-.563.005c-.083-.063-.127-.174-.13-.332 0-.165.057-.307.172-.427a.956.956 0 0 1 .401-.253 1.54 1.54 0 0 1 .475-.074c.24 0 .456.03.647.09.236.095.412.225.527.39a.94.94 0 0 1 .172.548c0 .204-.06.378-.183.523-.121.144-.32.316-.594.516-.098.067-.277.204-.538.412l-.286.232h.333c.494 0 .764-.009.809-.026.035-.011.066-.083.094-.217.028-.133.042-.223.042-.269h.323v.021c-.003.011-.031.211-.083.602-.042.386-.068.589-.079.606v.021h-2.238v-.132c0-.091.002-.142.006-.153a8.24 8.24 0 0 1 .266-.274 46.306 46.306 0 0 0 .933-.975c.265-.303.397-.596.397-.881 0-.2-.063-.368-.188-.501a.677.677 0 0 0-.506-.206.693.693 0 0 0-.156.016c-.046.01-.08.02-.105.026-.024.007-.035.014-.031.021z"/><path d="M93.522 42.027h5.738v-.316h-5.738zM100.762 40.55c0-.052.018-.091.053-.116a.22.22 0 0 1 .088-.042h.016c.031 0 .066.016.104.048.038.031.15.142.334.332l.256.258.605.607.605-.607c.386-.39.593-.594.62-.612a.104.104 0 0 1 .069-.02c.055 0 .095.015.12.047a.205.205 0 0 1 .041.11v.006c0 .031-.01.061-.031.09a4.67 4.67 0 0 1-.282.284l-.313.317-.605.612.605.611c.386.394.586.602.6.623a.177.177 0 0 1 .026.079.169.169 0 0 1-.036.105c-.025.032-.066.05-.125.053h-.016c-.024 0-.056-.018-.094-.053s-.153-.15-.344-.343l-.235-.237-.605-.606-.605.611c-.397.398-.61.605-.642.623a.058.058 0 0 1-.026.005h-.031c-.101 0-.152-.053-.152-.158 0-.039.018-.078.053-.116.034-.039.226-.234.573-.586l.605-.606-.605-.612a21.987 21.987 0 0 1-.6-.628.177.177 0 0 1-.026-.079z"/><path fill="none" d="M100.762 40.55c0-.052.018-.091.053-.116a.22.22 0 0 1 .088-.042h.016c.031 0 .066.016.104.048.038.031.15.142.334.332l.256.258.605.607.605-.607c.386-.39.593-.594.62-.612a.104.104 0 0 1 .069-.02c.055 0 .095.015.12.047a.205.205 0 0 1 .041.11v.006c0 .031-.01.061-.031.09a4.67 4.67 0 0 1-.282.284l-.313.317-.605.612.605.611c.386.394.586.602.6.623a.177.177 0 0 1 .026.079.169.169 0 0 1-.036.105c-.025.032-.066.05-.125.053h-.016c-.024 0-.056-.018-.094-.053s-.153-.15-.344-.343l-.235-.237-.605-.606-.605.611c-.397.398-.61.605-.642.623a.058.058 0 0 1-.026.005h-.031c-.101 0-.152-.053-.152-.158 0-.039.018-.078.053-.116.034-.039.226-.234.573-.586l.605-.606-.605-.612a21.987 21.987 0 0 1-.6-.628.177.177 0 0 1-.026-.079z"/><path d="m110.47 36.004.715.016c.313 0 .496-.005.548-.016h.036v.327h-.474l-.605 1.603a1826.934 1826.934 0 0 0-.616 1.635.19.19 0 0 1-.068.08.528.528 0 0 1-.14.01h-.037a.331.331 0 0 1-.104-.01c-.018-.008-.04-.034-.068-.08 0-.003-.02-.054-.058-.153a53.53 53.53 0 0 1-.375-.996l-.428-1.13-.428 1.13a165.943 165.943 0 0 1-.438 1.155.167.167 0 0 1-.063.073.528.528 0 0 1-.14.011h-.053c-.08 0-.132-.03-.156-.09 0-.007-.026-.079-.078-.216l-.24-.628a60.876 60.876 0 0 1-.298-.79l-.6-1.604h-.48v-.327h.058c.031.01.289.016.772.016.515 0 .814-.005.897-.016h.068v.327h-.235c-.156 0-.234.002-.234.005l.829 2.194.323-.854.324-.854-.183-.491h-.48v-.327h.058c.031.01.288.016.772.016.514 0 .814-.005.897-.016h.068v.327h-.235c-.156 0-.235.002-.235.005l.83 2.194c.003 0 .142-.365.417-1.097.275-.731.412-1.098.412-1.102h-.527v-.327h.053z"/><path fill="none" d="m110.47 36.004.715.016c.313 0 .496-.005.548-.016h.036v.327h-.474l-.605 1.603a1826.934 1826.934 0 0 0-.616 1.635.19.19 0 0 1-.068.08.528.528 0 0 1-.14.01h-.037a.331.331 0 0 1-.104-.01c-.018-.008-.04-.034-.068-.08 0-.003-.02-.054-.058-.153a53.53 53.53 0 0 1-.375-.996l-.428-1.13-.428 1.13a165.943 165.943 0 0 1-.438 1.155.167.167 0 0 1-.063.073.528.528 0 0 1-.14.011h-.053c-.08 0-.132-.03-.156-.09 0-.007-.026-.079-.078-.216l-.24-.628a60.876 60.876 0 0 1-.298-.79l-.6-1.604h-.48v-.327h.058c.031.01.289.016.772.016.515 0 .814-.005.897-.016h.068v.327h-.235c-.156 0-.234.002-.234.005l.829 2.194.323-.854.324-.854-.183-.491h-.48v-.327h.058c.031.01.288.016.772.016.514 0 .814-.005.897-.016h.068v.327h-.235c-.156 0-.235.002-.235.005l.83 2.194c.003 0 .142-.365.417-1.097.275-.731.412-1.098.412-1.102h-.527v-.327h.053z"/><path d="M108.212 43.746c0 .007.017.021.052.043.035.02.07.058.104.11a.39.39 0 0 1 .052.217c0 .15-.041.258-.125.321a.455.455 0 0 1-.563.005c-.084-.063-.127-.174-.13-.332 0-.165.057-.307.172-.427a.956.956 0 0 1 .401-.253 1.54 1.54 0 0 1 .475-.074c.24 0 .456.03.647.09.236.095.412.225.527.39a.94.94 0 0 1 .172.548c0 .204-.061.378-.183.523-.121.144-.32.316-.594.516-.098.067-.277.204-.538.412l-.287.232h.334c.494 0 .764-.009.809-.026.035-.011.066-.083.094-.217.027-.133.041-.223.041-.269h.324v.021c-.004.011-.031.211-.084.602-.041.386-.067.589-.078.606v.021h-2.238v-.132c0-.091.002-.142.005-.153a8.24 8.24 0 0 1 .266-.274 46.306 46.306 0 0 0 .934-.975c.265-.303.397-.596.397-.881 0-.2-.063-.368-.188-.501a.677.677 0 0 0-.506-.206.693.693 0 0 0-.157.016c-.045.01-.08.02-.104.026-.024.007-.035.014-.031.021z"/><path fill="none" d="M108.212 43.746c0 .007.017.021.052.043.035.02.07.058.104.11a.39.39 0 0 1 .052.217c0 .15-.041.258-.125.321a.455.455 0 0 1-.563.005c-.084-.063-.127-.174-.13-.332 0-.165.057-.307.172-.427a.956.956 0 0 1 .401-.253 1.54 1.54 0 0 1 .475-.074c.24 0 .456.03.647.09.236.095.412.225.527.39a.94.94 0 0 1 .172.548c0 .204-.061.378-.183.523-.121.144-.32.316-.594.516-.098.067-.277.204-.538.412l-.287.232h.334c.494 0 .764-.009.809-.026.035-.011.066-.083.094-.217.027-.133.041-.223.041-.269h.324v.021c-.004.011-.031.211-.084.602-.041.386-.067.589-.078.606v.021h-2.238v-.132c0-.091.002-.142.005-.153a8.24 8.24 0 0 1 .266-.274 46.306 46.306 0 0 0 .934-.975c.265-.303.397-.596.397-.881 0-.2-.063-.368-.188-.501a.677.677 0 0 0-.506-.206.693.693 0 0 0-.157.016c-.045.01-.08.02-.104.026-.024.007-.035.014-.031.021z"/><path d="M105.176 42.027h7.246v-.316h-7.246zM249.507 39.622c-.083-.01-.386-.016-.907-.016-.526 0-.83.005-.913.016h-.063v-.327h.563v-2.964h-.563v-.327h.063c.083.01.387.016.913.016.521 0 .824-.005.907-.016h.063v.327h-.564v1.245h1.519V36.33h-.564v-.327h.063c.083.01.386.016.907.016.526 0 .83-.005.913-.016h.063v.327h-.563v2.964h.563v.327h-.063c-.083-.01-.386-.016-.907-.016-.526 0-.83.005-.913.016h-.063v-.327h.564v-1.392h-1.519v1.392h.564v.327h-.063z"/><path fill="none" d="M249.507 39.622c-.083-.01-.386-.016-.907-.016-.526 0-.83.005-.913.016h-.063v-.327h.563v-2.964h-.563v-.327h.063c.083.01.387.016.913.016.521 0 .824-.005.907-.016h.063v.327h-.564v1.245h1.519V36.33h-.564v-.327h.063c.083.01.386.016.907.016.526 0 .83-.005.913-.016h.063v.327h-.563v2.964h.563v.327h-.063c-.083-.01-.386-.016-.907-.016-.526 0-.83.005-.913.016h-.063v-.327h.564v-1.392h-1.519v1.392h.564v.327h-.063z"/><path d="M249.181 43.746c0 .007.018.021.052.043.035.02.07.058.105.11a.39.39 0 0 1 .052.217c0 .15-.042.258-.125.321a.455.455 0 0 1-.563.005c-.084-.063-.128-.174-.131-.332 0-.165.057-.307.172-.427a.956.956 0 0 1 .402-.253 1.54 1.54 0 0 1 .474-.074c.24 0 .456.03.647.09.237.095.412.225.527.39a.94.94 0 0 1 .172.548c0 .204-.06.378-.182.523-.122.144-.32.316-.595.516-.097.067-.276.204-.537.412l-.287.232h.334c.494 0 .763-.009.808-.026.035-.011.066-.083.094-.217.028-.133.042-.223.042-.269h.323v.021c-.003.011-.031.211-.083.602-.042.386-.068.589-.078.606v.021h-2.238v-.132c0-.091.001-.142.005-.153a8.24 8.24 0 0 1 .266-.274 46.306 46.306 0 0 0 .934-.975c.264-.303.396-.596.396-.881 0-.2-.062-.368-.188-.501a.677.677 0 0 0-.506-.206.693.693 0 0 0-.156.016c-.045.01-.08.02-.104.026-.025.007-.035.014-.032.021z"/><path fill="none" d="M249.181 43.746c0 .007.018.021.052.043.035.02.07.058.105.11a.39.39 0 0 1 .052.217c0 .15-.042.258-.125.321a.455.455 0 0 1-.563.005c-.084-.063-.128-.174-.131-.332 0-.165.057-.307.172-.427a.956.956 0 0 1 .402-.253 1.54 1.54 0 0 1 .474-.074c.24 0 .456.03.647.09.237.095.412.225.527.39a.94.94 0 0 1 .172.548c0 .204-.06.378-.182.523-.122.144-.32.316-.595.516-.097.067-.276.204-.537.412l-.287.232h.334c.494 0 .763-.009.808-.026.035-.011.066-.083.094-.217.028-.133.042-.223.042-.269h.323v.021c-.003.011-.031.211-.083.602-.042.386-.068.589-.078.606v.021h-2.238v-.132c0-.091.001-.142.005-.153a8.24 8.24 0 0 1 .266-.274 46.306 46.306 0 0 0 .934-.975c.264-.303.396-.596.396-.881 0-.2-.062-.368-.188-.501a.677.677 0 0 0-.506-.206.693.693 0 0 0-.156.016c-.045.01-.08.02-.104.026-.025.007-.035.014-.032.021z"/><path d="M246.899 42.027h5.738v-.316H246.9zM254.14 40.55c0-.052.017-.091.052-.116a.22.22 0 0 1 .088-.042h.016c.031 0 .066.016.104.048.039.031.15.142.334.332l.256.258.605.607.605-.607c.386-.39.593-.594.621-.612a.104.104 0 0 1 .068-.02c.055 0 .095.015.12.047a.205.205 0 0 1 .042.11v.006c0 .031-.01.061-.032.09a4.67 4.67 0 0 1-.281.284l-.313.317-.606.612.606.611c.386.394.586.602.6.623a.177.177 0 0 1 .026.079.169.169 0 0 1-.037.105c-.024.032-.066.05-.125.053h-.016c-.024 0-.055-.018-.094-.053-.038-.035-.153-.15-.344-.343l-.235-.237-.605-.606-.605.611c-.397.398-.61.605-.642.623a.058.058 0 0 1-.026.005h-.031c-.1 0-.151-.053-.151-.158 0-.039.017-.078.052-.116.035-.039.226-.234.574-.586l.605-.606-.605-.612a21.987 21.987 0 0 1-.6-.628.177.177 0 0 1-.026-.079z"/><path fill="none" d="M254.14 40.55c0-.052.017-.091.052-.116a.22.22 0 0 1 .088-.042h.016c.031 0 .066.016.104.048.039.031.15.142.334.332l.256.258.605.607.605-.607c.386-.39.593-.594.621-.612a.104.104 0 0 1 .068-.02c.055 0 .095.015.12.047a.205.205 0 0 1 .042.11v.006c0 .031-.01.061-.032.09a4.67 4.67 0 0 1-.281.284l-.313.317-.606.612.606.611c.386.394.586.602.6.623a.177.177 0 0 1 .026.079.169.169 0 0 1-.037.105c-.024.032-.066.05-.125.053h-.016c-.024 0-.055-.018-.094-.053-.038-.035-.153-.15-.344-.343l-.235-.237-.605-.606-.605.611c-.397.398-.61.605-.642.623a.058.058 0 0 1-.026.005h-.031c-.1 0-.151-.053-.151-.158 0-.039.017-.078.052-.116.035-.039.226-.234.574-.586l.605-.606-.605-.612a21.987 21.987 0 0 1-.6-.628.177.177 0 0 1-.026-.079z"/><path d="m263.848 36.004.715.016c.313 0 .495-.005.547-.016h.037v.327h-.475l-.605 1.603a1826.934 1826.934 0 0 0-.616 1.635.19.19 0 0 1-.067.08.528.528 0 0 1-.141.01h-.037a.331.331 0 0 1-.104-.01c-.018-.008-.04-.034-.068-.08 0-.003-.02-.054-.057-.153a53.53 53.53 0 0 1-.376-.996l-.428-1.13-.427 1.13a165.943 165.943 0 0 1-.439 1.155.167.167 0 0 1-.062.073.528.528 0 0 1-.141.011h-.052c-.08 0-.132-.03-.157-.09 0-.007-.026-.079-.078-.216l-.24-.628a60.876 60.876 0 0 1-.297-.79l-.6-1.604h-.48v-.327h.057c.031.01.289.016.772.016.515 0 .814-.005.898-.016h.067v.327h-.234c-.157 0-.235.002-.235.005l.83 2.194.323-.854.323-.854-.182-.491h-.48v-.327h.057c.031.01.289.016.772.016.515 0 .814-.005.897-.016h.068v.327h-.235c-.156 0-.234.002-.234.005l.83 2.194c.003 0 .142-.365.416-1.097.275-.731.413-1.098.413-1.102h-.527v-.327h.052z"/><path fill="none" d="m263.848 36.004.715.016c.313 0 .495-.005.547-.016h.037v.327h-.475l-.605 1.603a1826.934 1826.934 0 0 0-.616 1.635.19.19 0 0 1-.067.08.528.528 0 0 1-.141.01h-.037a.331.331 0 0 1-.104-.01c-.018-.008-.04-.034-.068-.08 0-.003-.02-.054-.057-.153a53.53 53.53 0 0 1-.376-.996l-.428-1.13-.427 1.13a165.943 165.943 0 0 1-.439 1.155.167.167 0 0 1-.062.073.528.528 0 0 1-.141.011h-.052c-.08 0-.132-.03-.157-.09 0-.007-.026-.079-.078-.216l-.24-.628a60.876 60.876 0 0 1-.297-.79l-.6-1.604h-.48v-.327h.057c.031.01.289.016.772.016.515 0 .814-.005.898-.016h.067v.327h-.234c-.157 0-.235.002-.235.005l.83 2.194.323-.854.323-.854-.182-.491h-.48v-.327h.057c.031.01.289.016.772.016.515 0 .814-.005.897-.016h.068v.327h-.235c-.156 0-.234.002-.234.005l.83 2.194c.003 0 .142-.365.416-1.097.275-.731.413-1.098.413-1.102h-.527v-.327h.052z"/><path d="M261.589 43.746c0 .007.017.021.052.043.035.02.07.058.105.11a.39.39 0 0 1 .052.217c0 .15-.042.258-.126.321a.455.455 0 0 1-.563.005c-.083-.063-.127-.174-.13-.332 0-.165.057-.307.172-.427a.956.956 0 0 1 .401-.253 1.54 1.54 0 0 1 .475-.074c.24 0 .456.03.647.09.237.095.412.225.527.39a.94.94 0 0 1 .172.548c0 .204-.06.378-.182.523-.122.144-.32.316-.595.516-.098.067-.277.204-.537.412l-.287.232h.333c.494 0 .764-.009.809-.026.035-.011.066-.083.094-.217.028-.133.042-.223.042-.269h.323v.021c-.003.011-.031.211-.083.602-.042.386-.068.589-.079.606v.021h-2.238v-.132c0-.091.002-.142.006-.153a8.24 8.24 0 0 1 .266-.274 46.306 46.306 0 0 0 .933-.975c.265-.303.397-.596.397-.881 0-.2-.063-.368-.188-.501a.677.677 0 0 0-.506-.206.693.693 0 0 0-.156.016c-.046.01-.08.02-.105.026-.024.007-.034.014-.031.021z"/><path fill="none" d="M261.589 43.746c0 .007.017.021.052.043.035.02.07.058.105.11a.39.39 0 0 1 .052.217c0 .15-.042.258-.126.321a.455.455 0 0 1-.563.005c-.083-.063-.127-.174-.13-.332 0-.165.057-.307.172-.427a.956.956 0 0 1 .401-.253 1.54 1.54 0 0 1 .475-.074c.24 0 .456.03.647.09.237.095.412.225.527.39a.94.94 0 0 1 .172.548c0 .204-.06.378-.182.523-.122.144-.32.316-.595.516-.098.067-.277.204-.537.412l-.287.232h.333c.494 0 .764-.009.809-.026.035-.011.066-.083.094-.217.028-.133.042-.223.042-.269h.323v.021c-.003.011-.031.211-.083.602-.042.386-.068.589-.079.606v.021h-2.238v-.132c0-.091.002-.142.006-.153a8.24 8.24 0 0 1 .266-.274 46.306 46.306 0 0 0 .933-.975c.265-.303.397-.596.397-.881 0-.2-.063-.368-.188-.501a.677.677 0 0 0-.506-.206.693.693 0 0 0-.156.016c-.046.01-.08.02-.105.026-.024.007-.034.014-.031.021z"/><path d="M258.553 42.027h7.246v-.316h-7.246zM303.594 39.807c0-.208.092-.388.276-.54.185-.15.43-.226.736-.226.32 0 .575.053.767.161.19.108.313.25.365.429.007.033.01.08.01.14a.68.68 0 0 1-.208.52c-.14.131-.3.23-.48.298l.078.02c.264.067.46.173.59.318a.716.716 0 0 1 .192.489c0 .107-.02.213-.062.317a.96.96 0 0 1-.636.57c-.188.06-.41.093-.663.096-.313 0-.58-.076-.803-.227-.223-.151-.332-.35-.329-.595a.418.418 0 0 1 .125-.287.449.449 0 0 1 .313-.116c.136 0 .242.04.318.12.077.081.117.184.12.308a.522.522 0 0 1-.01.106.264.264 0 0 1-.037.091.642.642 0 0 1-.052.07.363.363 0 0 1-.052.051 1.919 1.919 0 0 1-.047.035.276.276 0 0 1-.042.026l-.01.005c0 .003.02.013.057.03.039.017.101.035.188.055.087.02.176.03.266.03h.021c.212 0 .351-.095.417-.287a1.34 1.34 0 0 0 .042-.403c0-.182-.017-.321-.052-.419a.41.41 0 0 0-.204-.227c-.059-.027-.175-.042-.35-.045a1.38 1.38 0 0 1-.229-.01c-.024-.007-.036-.036-.036-.086v-.035c0-.06.009-.096.026-.106.017-.01.08-.02.188-.03.024 0 .05-.002.078-.005a.59.59 0 0 1 .068-.005.14.14 0 0 0 .042-.006.488.488 0 0 0 .15-.075.635.635 0 0 0 .152-.217.862.862 0 0 0 .078-.408.859.859 0 0 0-.01-.152.684.684 0 0 0-.042-.13.172.172 0 0 0-.12-.102 1.135 1.135 0 0 0-.219-.035c-.062 0-.106.002-.13.005-.094.02-.195.059-.303.116.178.067.266.19.266.368 0 .138-.042.237-.125.298a.46.46 0 0 1-.276.09.424.424 0 0 1-.282-.1.355.355 0 0 1-.12-.288z"/><path fill="none" d="M303.594 39.807c0-.208.092-.388.276-.54.185-.15.43-.226.736-.226.32 0 .575.053.767.161.19.108.313.25.365.429.007.033.01.08.01.14a.68.68 0 0 1-.208.52c-.14.131-.3.23-.48.298l.078.02c.264.067.46.173.59.318a.716.716 0 0 1 .192.489c0 .107-.02.213-.062.317a.96.96 0 0 1-.636.57c-.188.06-.41.093-.663.096-.313 0-.58-.076-.803-.227-.223-.151-.332-.35-.329-.595a.418.418 0 0 1 .125-.287.449.449 0 0 1 .313-.116c.136 0 .242.04.318.12.077.081.117.184.12.308a.522.522 0 0 1-.01.106.264.264 0 0 1-.037.091.642.642 0 0 1-.052.07.363.363 0 0 1-.052.051 1.919 1.919 0 0 1-.047.035.276.276 0 0 1-.042.026l-.01.005c0 .003.02.013.057.03.039.017.101.035.188.055.087.02.176.03.266.03h.021c.212 0 .351-.095.417-.287a1.34 1.34 0 0 0 .042-.403c0-.182-.017-.321-.052-.419a.41.41 0 0 0-.204-.227c-.059-.027-.175-.042-.35-.045a1.38 1.38 0 0 1-.229-.01c-.024-.007-.036-.036-.036-.086v-.035c0-.06.009-.096.026-.106.017-.01.08-.02.188-.03.024 0 .05-.002.078-.005a.59.59 0 0 1 .068-.005.14.14 0 0 0 .042-.006.488.488 0 0 0 .15-.075.635.635 0 0 0 .152-.217.862.862 0 0 0 .078-.408.859.859 0 0 0-.01-.152.684.684 0 0 0-.042-.13.172.172 0 0 0-.12-.102 1.135 1.135 0 0 0-.219-.035c-.062 0-.106.002-.13.005-.094.02-.195.059-.303.116.178.067.266.19.266.368 0 .138-.042.237-.125.298a.46.46 0 0 1-.276.09.424.424 0 0 1-.282-.1.355.355 0 0 1-.12-.288z"/><path d="M308.262 42.344c-.083-.01-.386-.016-.907-.016-.525 0-.83.006-.913.016h-.063v-.313h.564v-2.834h-.564v-.313h.063c.083.01.388.016.913.016.521 0 .824-.006.907-.016h.063v.313h-.564v1.19h1.518v-1.19h-.563v-.313h.063c.083.01.386.016.907.016.525 0 .83-.006.913-.016h.063v.313h-.564v2.834h.564v.313h-.063c-.084-.01-.386-.016-.908-.016-.525 0-.829.006-.912.016h-.063v-.313h.563V40.7h-1.518v1.331h.564v.313h-.063z"/><path fill="none" d="M308.262 42.344c-.083-.01-.386-.016-.907-.016-.525 0-.83.006-.913.016h-.063v-.313h.564v-2.834h-.564v-.313h.063c.083.01.388.016.913.016.521 0 .824-.006.907-.016h.063v.313h-.564v1.19h1.518v-1.19h-.563v-.313h.063c.083.01.386.016.907.016.525 0 .83-.006.913-.016h.063v.313h-.564v2.834h.564v.313h-.063c-.084-.01-.386-.016-.908-.016-.525 0-.829.006-.912.016h-.063v-.313h.563V40.7h-1.518v1.331h.564v.313h-.063z"/><path d="M311.746 39.822c0-.05.018-.087.053-.11a.224.224 0 0 1 .088-.041h.016c.031 0 .066.015.104.045.038.03.15.137.334.318l.256.247.605.58.605-.58c.386-.373.593-.568.62-.585a.108.108 0 0 1 .068-.02c.056 0 .096.015.12.045.025.03.038.066.042.106v.005c0 .03-.01.06-.031.086-.021.027-.115.118-.282.272l-.313.303-.605.585.605.585c.386.376.586.575.6.595.014.02.022.045.026.076 0 .036-.012.07-.037.1-.024.03-.066.047-.125.05h-.015c-.025 0-.056-.016-.094-.05a16.424 16.424 0 0 1-.345-.327l-.234-.227-.605-.58-.605.585c-.397.38-.61.578-.642.595a.06.06 0 0 1-.026.005h-.031c-.101 0-.152-.05-.152-.151 0-.037.018-.074.053-.111.034-.037.226-.224.573-.56l.605-.58-.605-.585c-.386-.38-.586-.58-.6-.6a.164.164 0 0 1-.026-.076z"/><path fill="none" d="M311.746 39.822c0-.05.018-.087.053-.11a.224.224 0 0 1 .088-.041h.016c.031 0 .066.015.104.045.038.03.15.137.334.318l.256.247.605.58.605-.58c.386-.373.593-.568.62-.585a.108.108 0 0 1 .068-.02c.056 0 .096.015.12.045.025.03.038.066.042.106v.005c0 .03-.01.06-.031.086-.021.027-.115.118-.282.272l-.313.303-.605.585.605.585c.386.376.586.575.6.595.014.02.022.045.026.076 0 .036-.012.07-.037.1-.024.03-.066.047-.125.05h-.015c-.025 0-.056-.016-.094-.05a16.424 16.424 0 0 1-.345-.327l-.234-.227-.605-.58-.605.585c-.397.38-.61.578-.642.595a.06.06 0 0 1-.026.005h-.031c-.101 0-.152-.05-.152-.151 0-.037.018-.074.053-.111.034-.037.226-.224.573-.56l.605-.58-.605-.585c-.386-.38-.586-.58-.6-.6a.164.164 0 0 1-.026-.076z"/><path d="M315.95 39.807c0-.208.093-.388.277-.54.184-.15.43-.226.735-.226.32 0 .576.053.767.161.191.108.313.25.365.429.007.033.01.08.01.14a.68.68 0 0 1-.208.52c-.14.131-.299.23-.48.298l.078.02c.265.067.461.173.59.318a.716.716 0 0 1 .193.489c0 .107-.021.213-.063.317-.042.105-.111.21-.208.318a.96.96 0 0 1-.428.252c-.188.06-.409.093-.663.096-.313 0-.58-.076-.803-.227-.222-.151-.332-.35-.328-.595a.418.418 0 0 1 .125-.287.449.449 0 0 1 .313-.116c.135 0 .241.04.318.12.076.081.116.184.12.308a.522.522 0 0 1-.01.106.264.264 0 0 1-.037.091.642.642 0 0 1-.052.07.363.363 0 0 1-.052.051 1.919 1.919 0 0 1-.047.035.276.276 0 0 1-.042.026l-.01.005c0 .003.019.013.057.03.038.017.1.035.188.055.087.02.175.03.266.03h.02c.213 0 .352-.095.418-.287a1.34 1.34 0 0 0 .041-.403c0-.182-.017-.321-.052-.419a.41.41 0 0 0-.203-.227c-.06-.027-.176-.042-.35-.045a1.38 1.38 0 0 1-.23-.01c-.023-.007-.036-.036-.036-.086v-.035c0-.06.01-.096.027-.106.017-.01.08-.02.187-.03.025 0 .05-.002.079-.005a.59.59 0 0 1 .067-.005.14.14 0 0 0 .042-.006.488.488 0 0 0 .151-.075.635.635 0 0 0 .152-.217.862.862 0 0 0 .078-.408.859.859 0 0 0-.01-.152.684.684 0 0 0-.042-.13.172.172 0 0 0-.12-.102 1.135 1.135 0 0 0-.22-.035c-.062 0-.105.002-.13.005-.094.02-.194.059-.302.116.177.067.266.19.266.368 0 .138-.042.237-.125.298a.46.46 0 0 1-.277.09.424.424 0 0 1-.282-.1.355.355 0 0 1-.12-.288z"/><path fill="none" d="M315.95 39.807c0-.208.093-.388.277-.54.184-.15.43-.226.735-.226.32 0 .576.053.767.161.191.108.313.25.365.429.007.033.01.08.01.14a.68.68 0 0 1-.208.52c-.14.131-.299.23-.48.298l.078.02c.265.067.461.173.59.318a.716.716 0 0 1 .193.489c0 .107-.021.213-.063.317-.042.105-.111.21-.208.318a.96.96 0 0 1-.428.252c-.188.06-.409.093-.663.096-.313 0-.58-.076-.803-.227-.222-.151-.332-.35-.328-.595a.418.418 0 0 1 .125-.287.449.449 0 0 1 .313-.116c.135 0 .241.04.318.12.076.081.116.184.12.308a.522.522 0 0 1-.01.106.264.264 0 0 1-.037.091.642.642 0 0 1-.052.07.363.363 0 0 1-.052.051 1.919 1.919 0 0 1-.047.035.276.276 0 0 1-.042.026l-.01.005c0 .003.019.013.057.03.038.017.1.035.188.055.087.02.175.03.266.03h.02c.213 0 .352-.095.418-.287a1.34 1.34 0 0 0 .041-.403c0-.182-.017-.321-.052-.419a.41.41 0 0 0-.203-.227c-.06-.027-.176-.042-.35-.045a1.38 1.38 0 0 1-.23-.01c-.023-.007-.036-.036-.036-.086v-.035c0-.06.01-.096.027-.106.017-.01.08-.02.187-.03.025 0 .05-.002.079-.005a.59.59 0 0 1 .067-.005.14.14 0 0 0 .042-.006.488.488 0 0 0 .151-.075.635.635 0 0 0 .152-.217.862.862 0 0 0 .078-.408.859.859 0 0 0-.01-.152.684.684 0 0 0-.042-.13.172.172 0 0 0-.12-.102 1.135 1.135 0 0 0-.22-.035c-.062 0-.105.002-.13.005-.094.02-.194.059-.302.116.177.067.266.19.266.368 0 .138-.042.237-.125.298a.46.46 0 0 1-.277.09.424.424 0 0 1-.282-.1.355.355 0 0 1-.12-.288z"/><path d="m323.305 38.884.714.016c.313 0 .496-.006.548-.016h.037v.313h-.475l-.605 1.533a1699.454 1699.454 0 0 0-.616 1.563.184.184 0 0 1-.067.076.552.552 0 0 1-.141.01h-.037a.345.345 0 0 1-.104-.01c-.017-.007-.04-.032-.068-.076a49.818 49.818 0 0 1-.433-1.1l-.427-1.078-.428 1.079a154.363 154.363 0 0 1-.438 1.104.162.162 0 0 1-.063.07.552.552 0 0 1-.14.01h-.053c-.08 0-.132-.028-.156-.085 0-.007-.026-.075-.079-.207l-.24-.6a56.628 56.628 0 0 1-.297-.756l-.6-1.533h-.48v-.313h.058c.031.01.289.016.772.016.514 0 .814-.006.897-.016h.068v.313h-.235c-.156 0-.235.002-.235.005l.83 2.098.323-.817.323-.817-.182-.469h-.48v-.313h.057c.032.01.289.016.772.016.515 0 .814-.006.897-.016h.068v.313h-.234c-.157 0-.235.002-.235.005l.83 2.098c.003 0 .142-.35.416-1.05.275-.698.413-1.05.413-1.053h-.527v-.313h.052z"/><path fill="none" d="m323.305 38.884.714.016c.313 0 .496-.006.548-.016h.037v.313h-.475l-.605 1.533a1699.454 1699.454 0 0 0-.616 1.563.184.184 0 0 1-.067.076.552.552 0 0 1-.141.01h-.037a.345.345 0 0 1-.104-.01c-.017-.007-.04-.032-.068-.076a49.818 49.818 0 0 1-.433-1.1l-.427-1.078-.428 1.079a154.363 154.363 0 0 1-.438 1.104.162.162 0 0 1-.063.07.552.552 0 0 1-.14.01h-.053c-.08 0-.132-.028-.156-.085 0-.007-.026-.075-.079-.207l-.24-.6a56.628 56.628 0 0 1-.297-.756l-.6-1.533h-.48v-.313h.058c.031.01.289.016.772.016.514 0 .814-.006.897-.016h.068v.313h-.235c-.156 0-.235.002-.235.005l.83 2.098.323-.817.323-.817-.182-.469h-.48v-.313h.057c.032.01.289.016.772.016.515 0 .814-.006.897-.016h.068v.313h-.234c-.157 0-.235.002-.235.005l.83 2.098c.003 0 .142-.35.416-1.05.275-.698.413-1.05.413-1.053h-.527v-.313h.052z"/><symbol id="p"><path d="M.307.74.374.667a.512.512 0 0 1-.132-.1A.364.364 0 0 1 .16.445a.215.215 0 0 0 .25-.04.231.231 0 0 0 .061-.17.236.236 0 0 0-.063-.17A.21.21 0 0 0 .25 0C.083 0 0 .104 0 .312c0 .087.032.175.096.265.065.09.135.143.21.162M.133.24c0-.088.037-.131.11-.131.03 0 .055.01.073.032a.14.14 0 0 1 .027.091c0 .04-.01.071-.029.094A.088.088 0 0 1 .241.36C.168.36.131.32.131.238z"/></symbol><use xlink:href="#g" transform="matrix(5.76065 0 0 -5.76065 275.4 12.241)"/><use xlink:href="#p" transform="matrix(5.76065 0 0 -5.76065 278.937 12.298)"/><use xlink:href="#m" transform="matrix(5.76065 0 0 -5.76065 163.337 48.302)"/><use xlink:href="#n" transform="matrix(5.76065 0 0 -5.76065 166.141 47.331)"/><use xlink:href="#i" transform="matrix(5.76065 0 0 -5.76065 169.775 48.245)"/><use xlink:href="#o" transform="matrix(5.76065 0 0 -5.76065 163.04 56.628)"/><use xlink:href="#n" transform="matrix(5.76065 0 0 -5.76065 166.578 54.532)"/><use xlink:href="#i" transform="matrix(5.76065 0 0 -5.76065 170.212 55.446)"/><use xlink:href="#m" transform="matrix(5.76065 0 0 -5.76065 231.745 48.302)"/><use xlink:href="#n" transform="matrix(5.76065 0 0 -5.76065 234.549 47.331)"/><use xlink:href="#i" transform="matrix(5.76065 0 0 -5.76065 238.183 48.245)"/><use xlink:href="#o" transform="matrix(5.76065 0 0 -5.76065 231.447 56.628)"/><use xlink:href="#n" transform="matrix(5.76065 0 0 -5.76065 234.986 54.532)"/><use xlink:href="#i" transform="matrix(5.76065 0 0 -5.76065 238.62 55.446)"/><path d="M130.155 41.657V15.23c0-.18.063-.332.19-.459a.624.624 0 0 1 .458-.19h3.024c.179 0 .332.064.458.19.127.127.19.28.19.459v26.427a.624.624 0 0 1-.19.458.624.624 0 0 1-.458.19h-3.024a.624.624 0 0 1-.459-.19.624.624 0 0 1-.19-.458z" fill="#f8cecc"/><path fill="none" stroke="#000" d="M130.155 41.657V15.23c0-.18.063-.332.19-.459a.624.624 0 0 1 .458-.19h3.024c.179 0 .332.064.458.19.127.127.19.28.19.459v26.427a.624.624 0 0 1-.19.458.624.624 0 0 1-.458.19h-3.024a.624.624 0 0 1-.459-.19.624.624 0 0 1-.19-.458z" stroke-width=".72008"/><path d="M172.64 41.657V15.23c0-.18.063-.332.19-.459a.625.625 0 0 1 .458-.19h3.024c.179 0 .332.064.458.19.127.127.19.28.19.459v26.427a.624.624 0 0 1-.19.458.624.624 0 0 1-.458.19h-3.024a.624.624 0 0 1-.459-.19.624.624 0 0 1-.19-.458z" fill="#f8cecc"/><path fill="none" stroke="#000" d="M172.64 41.657V15.23c0-.18.063-.332.19-.459a.625.625 0 0 1 .458-.19h3.024c.179 0 .332.064.458.19.127.127.19.28.19.459v26.427a.624.624 0 0 1-.19.458.624.624 0 0 1-.458.19h-3.024a.624.624 0 0 1-.459-.19.624.624 0 0 1-.19-.458z" stroke-width=".72008"/><symbol id="q"><path d="M0 .088C0 .113.008.133.025.15a.085.085 0 0 0 .063.026A.084.084 0 0 0 .15.15.084.084 0 0 0 .176.088.085.085 0 0 0 .15.026.084.084 0 0 0 .088 0a.085.085 0 0 0-.063.026A.086.086 0 0 0 0 .088z"/></symbol><symbol id="r"><path d="m0 .064.05.104c.052-.04.096-.06.134-.06.082 0 .123.05.123.151 0 .049-.01.084-.028.106C.26.388.229.4.186.4.146.399.108.379.07.34L.02.374v.354h.385V.62H.142V.492C.164.502.19.507.22.507c.07 0 .125-.02.162-.061A.243.243 0 0 0 .438.273C.438.09.354 0 .184 0A.283.283 0 0 0 0 .064z"/></symbol><use xlink:href="#g" transform="matrix(5.76065 0 0 -5.76065 58.79 12.241)"/><use xlink:href="#j" transform="matrix(5.76065 0 0 -5.76065 62.167 12.298)"/><use xlink:href="#q" transform="matrix(5.76065 0 0 -5.76065 65.822 12.382)"/><use xlink:href="#r" transform="matrix(5.76065 0 0 -5.76065 67.91 12.298)"/><path d="M69.848 41.65V15.222c0-.18.063-.332.19-.459a.624.624 0 0 1 .458-.19h3.024c.18 0 .332.064.459.19.126.127.19.28.19.459v26.426a.624.624 0 0 1-.19.459.624.624 0 0 1-.459.19h-3.024a.624.624 0 0 1-.458-.19.624.624 0 0 1-.19-.459z" fill="#f8cecc"/><path fill="none" stroke="#000" d="M69.848 41.65V15.222c0-.18.063-.332.19-.459a.624.624 0 0 1 .458-.19h3.024c.18 0 .332.064.459.19.126.127.19.28.19.459v26.426a.624.624 0 0 1-.19.459.624.624 0 0 1-.459.19h-3.024a.624.624 0 0 1-.458-.19.624.624 0 0 1-.19-.459z" stroke-width=".72008"/><path stroke-miterlimit="10" fill="none" stroke="#000" d="M176.629 57.635v3.24c0 2.16-2.4 3.241-7.201 3.241H154.37c-4.8 0-7.2.449-7.2 1.347v.676V64.786c0-.447-2.401-.67-7.202-.67h-15.05c-4.8 0-7.2-1.08-7.2-3.24v-3.24" stroke-width=".72008"/><symbol id="s"><path d="M.605 0v.328C.605.396.575.43.513.43A.097.097 0 0 1 .46.415.094.094 0 0 1 .425.377V0H.303v.347a.08.08 0 0 1-.024.06.093.093 0 0 1-.068.024.097.097 0 0 1-.05-.017.117.117 0 0 1-.039-.038V0H0v.523h.084L.109.477A.17.17 0 0 0 .24.533c.07 0 .122-.02.157-.057.015.017.037.031.064.041.027.01.055.016.082.016a.18.18 0 0 0 .136-.05.188.188 0 0 0 .049-.138V0H.605z"/></symbol><use xlink:href="#s" transform="matrix(5.76065 0 0 -5.76065 144.801 72.728)"/><symbol id="t"><path d="m.403 0-.19.295L.131.3V0H0v.715L.083.72C.13.72.169.723.198.723.38.723.471.653.471.512A.194.194 0 0 0 .433.396.203.203 0 0 0 .338.322L.55 0H.403M.132.605V.406A.699.699 0 0 1 .186.403a.23.23 0 0 1 .116.023C.326.44.339.47.339.513c0 .035-.013.06-.04.074a.278.278 0 0 1-.124.02.333.333 0 0 1-.043-.002z"/></symbol><use xlink:href="#t" transform="matrix(5.76065 0 0 -5.76065 203.879 73.448)"/></g></svg>